<svg width="39" height="39" viewBox="0 0 39 39" fill="none" xmlns="http://www.w3.org/2000/svg">
<g id="Group 427320860">
<path id="Vector" d="M19.2721 0.61499H19.1851C8.65537 0.61499 0.119385 9.15351 0.119385 19.6863V19.7734C0.119385 30.3061 8.65537 38.8447 19.1851 38.8447H19.2721C29.8018 38.8447 38.3378 30.3061 38.3378 19.7734V19.6863C38.3378 9.15351 29.8018 0.61499 19.2721 0.61499Z" fill="#05053E"/>
<path id="Vector_2" d="M28.7922 10.9535C27.0328 10.1458 25.1476 9.55117 23.1752 9.21097C23.1391 9.20427 23.1029 9.22034 23.0855 9.25383C22.8431 9.68511 22.574 10.249 22.3866 10.691C20.2656 10.3735 18.1554 10.3735 16.0773 10.691C15.8885 10.2383 15.61 9.68511 15.3663 9.25383C15.3476 9.22168 15.3114 9.20561 15.2766 9.21097C13.3056 9.55117 11.419 10.1458 9.65961 10.9535C9.64488 10.9602 9.63149 10.9709 9.62212 10.9856C6.04437 16.3324 5.06421 21.5479 5.54491 26.6991C5.54758 26.7246 5.56098 26.7487 5.58106 26.7634C7.94168 28.4979 10.2287 29.5507 12.4728 30.2485C12.509 30.2592 12.5464 30.2458 12.5692 30.2163C13.0994 29.4917 13.5734 28.7269 13.9792 27.922C14.0033 27.8751 13.9791 27.8189 13.9309 27.8001C13.1798 27.5148 12.4661 27.1679 11.7779 26.7741C11.723 26.742 11.719 26.6643 11.7685 26.6268C11.9131 26.5183 12.0577 26.4058 12.1956 26.292C12.2211 26.2705 12.2559 26.2665 12.2853 26.2799C16.8017 28.3426 21.6917 28.3426 26.1545 26.2799C26.1839 26.2652 26.2187 26.2705 26.2442 26.2906C26.3821 26.4045 26.5267 26.5183 26.6726 26.6268C26.7222 26.6643 26.7195 26.742 26.6646 26.7741C25.9777 27.176 25.2627 27.5162 24.5102 27.8001C24.4607 27.8189 24.4392 27.8751 24.4633 27.9233C24.8784 28.7256 25.3511 29.4904 25.8719 30.2163C25.8933 30.2471 25.9322 30.2605 25.9683 30.2498C28.2232 29.552 30.5101 28.4993 32.8708 26.7648C32.8908 26.75 32.9042 26.7259 32.9069 26.7018C33.4827 20.747 31.9429 15.5743 28.8271 10.9883C28.819 10.9736 28.807 10.9615 28.7909 10.9548L28.7922 10.9535ZM14.6513 23.5623C13.2909 23.5623 12.1715 22.314 12.1715 20.7805C12.1715 19.2469 13.2708 17.9986 14.6513 17.9986C16.0318 17.9986 17.1538 19.2589 17.1311 20.7805C17.1311 22.314 16.0318 23.5623 14.6513 23.5623ZM23.8219 23.5623C22.4615 23.5623 21.3422 22.314 21.3422 20.7805C21.3422 19.2469 22.4415 17.9986 23.8219 17.9986C25.2024 17.9986 26.3245 19.2589 26.3017 20.7805C26.3017 22.314 25.2145 23.5623 23.8219 23.5623Z" fill="white"/>
</g>
</svg>
