<svg width="35" height="36" viewBox="0 0 35 36" fill="none" xmlns="http://www.w3.org/2000/svg">
<path id="Vector" d="M11.9747 18.9473L7.36913 23.6841L11.9747 28.4209L16.5803 23.6841L11.9747 18.9473ZM23.0281 0C20.006 4.9869e-05 17.0957 1.17535 14.8809 3.29015C12.6662 5.40494 11.3108 8.30281 11.0867 11.4025C8.80035 11.5773 6.61081 12.4235 4.7783 13.8406C2.94579 15.2577 1.54735 17.1861 0.74914 19.3966C-0.049065 21.6071 -0.213475 24.0068 0.275445 26.3106C0.764365 28.6144 1.88606 30.7254 3.50725 32.3928C5.12844 34.0602 7.18096 35.2139 9.42093 35.7167C11.6609 36.2196 13.9941 36.0505 16.1434 35.2295C18.2927 34.4086 20.1676 32.9703 21.5455 31.0855C22.9233 29.2008 23.7461 26.9489 23.916 24.5973C27.0059 24.3603 29.8862 22.9007 31.9516 20.5252C34.017 18.1497 35.1067 15.0433 34.9917 11.8588C34.8768 8.67421 33.5661 5.65945 31.3351 3.44802C29.1041 1.2366 26.1265 0.000685612 23.0281 0ZM23.6231 20.8211C23.107 18.6083 22.0058 16.5854 20.4413 14.9762C18.8767 13.3671 16.9099 12.2345 14.7583 11.7037C14.8726 10.0739 15.4398 8.51209 16.3925 7.20436C17.3452 5.89663 18.6433 4.89801 20.1321 4.3274C21.6209 3.75679 23.2378 3.63822 24.7902 3.98581C26.3427 4.33339 27.7653 5.13249 28.8888 6.28798C30.0123 7.44346 30.7892 8.90664 31.1272 10.5033C31.4651 12.1 31.3499 13.763 30.7951 15.2942C30.2403 16.8255 29.2693 18.1605 27.9978 19.1403C26.7263 20.1202 25.2078 20.7036 23.6231 20.8211ZM20.2647 23.6841C20.2647 25.9454 19.3913 28.1141 17.8366 29.713C16.282 31.312 14.1734 32.2103 11.9747 32.2103C9.77605 32.2103 7.66745 31.312 6.11276 29.713C4.55808 28.1141 3.68467 25.9454 3.68467 23.6841C3.68467 21.4228 4.55808 19.2541 6.11276 17.6551C7.66745 16.0561 9.77605 15.1578 11.9747 15.1578C14.1734 15.1578 16.282 16.0561 17.8366 17.6551C19.3913 19.2541 20.2647 21.4228 20.2647 23.6841ZM0.921325 8.52626C0.921325 6.51621 1.69769 4.58849 3.07963 3.16717C4.46157 1.74585 6.33588 0.947363 8.29024 0.947363H11.0536V4.73681H8.29024C7.31306 4.73681 6.37591 5.13606 5.68494 5.84672C4.99397 6.55738 4.60578 7.52124 4.60578 8.52626V11.3684H0.921325V8.52626ZM30.397 27.4735V24.6314H34.0815V27.4735C34.0815 29.4836 33.3051 31.4113 31.9231 32.8326C30.5412 34.2539 28.6669 35.0524 26.7125 35.0524H23.9492V31.263H26.7125C27.6897 31.263 28.6269 30.8637 29.3178 30.1531C30.0088 29.4424 30.397 28.4785 30.397 27.4735Z" fill="white"/>
</svg>
