<svg width="44" height="44" viewBox="0 0 44 44" fill="none" xmlns="http://www.w3.org/2000/svg">
<g id="Group 1000006173">
<path id="Vector" d="M28.6674 19.7774V19.7996M6.83056 13.951C5.85594 13.2019 5.1074 12.198 4.66768 11.0501C4.22797 9.9022 4.11419 8.65508 4.33893 7.44658C4.56367 6.23807 5.11818 5.11523 5.94117 4.20216C6.76415 3.28909 7.82357 2.62135 9.00233 2.27274C10.1811 1.92412 11.4333 1.90821 12.6205 2.22676C13.8077 2.54531 14.8838 3.18592 15.7297 4.07778C16.5756 4.96965 17.1585 6.07803 17.4139 7.28044C17.6692 8.48285 17.5872 9.73245 17.1768 10.8911" stroke="white" stroke-width="3" stroke-linecap="round" stroke-linejoin="round"/>
<path id="Vector_2" d="M30.8881 4.22266V12.6734C33.6381 14.2649 35.7319 16.7832 36.7945 19.7775H39.7744C40.3637 19.7775 40.9289 20.0117 41.3457 20.4284C41.7624 20.8451 41.9965 21.4103 41.9965 21.9997V26.4439C41.9965 27.0333 41.7624 27.5985 41.3457 28.0152C40.9289 28.4319 40.3637 28.666 39.7744 28.666H36.7923C36.0457 30.7771 34.7768 32.6659 33.108 34.1614V38.6656C33.108 39.5496 32.7568 40.3974 32.1317 41.0225C31.5066 41.6476 30.6588 41.9988 29.7748 41.9988C28.8908 41.9988 28.043 41.6476 27.4179 41.0225C26.7928 40.3974 26.4416 39.5496 26.4416 38.6656V37.3701C25.7074 37.4935 24.9641 37.5552 24.2195 37.5545H15.331C14.5864 37.5552 13.8431 37.4935 13.1089 37.3701V38.6656C13.1089 39.5496 12.7577 40.3974 12.1326 41.0225C11.5075 41.6476 10.6597 41.9988 9.77568 41.9988C8.89167 41.9988 8.04386 41.6476 7.41876 41.0225C6.79367 40.3974 6.4425 39.5496 6.4425 38.6656V34.1614C4.42916 32.3614 3.00992 29.9924 2.37263 27.368C1.73534 24.7436 1.91005 21.9876 2.87363 19.4647C3.83721 16.9418 5.54423 14.771 7.76874 13.2397C9.99325 11.7083 12.6304 10.8886 15.331 10.889H20.8863L30.8881 4.22266Z" stroke="white" stroke-width="3" stroke-linecap="round" stroke-linejoin="round"/>
</g>
</svg>
