<svg width="43" height="44" viewBox="0 0 43 44" fill="none" xmlns="http://www.w3.org/2000/svg">
<g id="Group">
<path id="Vector" d="M20.4677 38.9231C18.9662 38.9251 17.4626 38.0246 17.0256 36.2215C16.8945 35.6804 16.6375 35.1779 16.2755 34.7549C15.9134 34.3319 15.4566 34.0003 14.9423 33.7872C14.4279 33.5741 13.8704 33.4854 13.3153 33.5285C12.7602 33.5715 12.2231 33.745 11.7477 34.0349C8.58256 35.9631 4.95795 32.3405 6.88615 29.1733C7.17559 28.6981 7.34882 28.1614 7.39176 27.6066C7.4347 27.0519 7.34614 26.4948 7.13328 25.9808C6.92041 25.4667 6.58925 25.0101 6.16671 24.6481C5.74418 24.2861 5.24218 24.0289 4.70154 23.8974C1.09949 23.0236 1.09949 17.8995 4.70154 17.0256C5.24267 16.8945 5.74519 16.6375 6.1682 16.2755C6.59122 15.9134 6.92278 15.4566 7.13589 14.9423C7.349 14.4279 7.43764 13.8704 7.3946 13.3153C7.35156 12.7602 7.17806 12.2231 6.88821 11.7477C4.96 8.58256 8.58256 4.95795 11.7497 6.88615C13.801 8.13333 16.4595 7.02974 17.0256 4.70154C17.8995 1.09949 23.0236 1.09949 23.8974 4.70154C24.0286 5.24267 24.2856 5.74519 24.6476 6.1682C25.0096 6.59122 25.4664 6.92278 25.9808 7.13589C26.4952 7.349 27.0526 7.43764 27.6078 7.3946C28.1629 7.35156 28.7 7.17806 29.1754 6.8882C32.3405 4.96 35.9651 8.58256 34.0369 11.7497C33.7475 12.2249 33.5743 12.7617 33.5313 13.3165C33.4884 13.8712 33.5769 14.4282 33.7898 14.9423C34.0027 15.4564 34.3338 15.913 34.7564 16.275C35.1789 16.637 35.6809 16.8942 36.2215 17.0256C38.039 17.4667 38.9395 18.9887 38.9251 20.5005" stroke="white" stroke-width="3" stroke-linecap="round" stroke-linejoin="round"/>
<path id="Vector_2" d="M34.8235 38.923C33.7354 38.923 32.6919 38.4908 31.9225 37.7214C31.1531 36.952 30.7209 35.9085 30.7209 34.8204C30.7209 33.7324 31.1531 32.6889 31.9225 31.9195C32.6919 31.1501 33.7354 30.7179 34.8235 30.7179M34.8235 38.923C35.9115 38.923 36.955 38.4908 37.7244 37.7214C38.4938 36.952 38.926 35.9085 38.926 34.8204C38.926 33.7324 38.4938 32.6889 37.7244 31.9195C36.955 31.1501 35.9115 30.7179 34.8235 30.7179M34.8235 38.923V41.9999M34.8235 30.7179V27.641M41.0409 31.2307L38.3763 32.7692M31.2727 36.8717L28.606 38.4102M28.606 31.2307L31.2727 32.7692M38.3763 36.8717L41.043 38.4102M14.3086 20.4615C14.3086 22.0936 14.9569 23.6588 16.111 24.8129C17.2651 25.967 18.8303 26.6153 20.4624 26.6153C22.0945 26.6153 23.6598 25.967 24.8139 24.8129C25.9679 23.6588 26.6163 22.0936 26.6163 20.4615C26.6163 18.8294 25.9679 17.2641 24.8139 16.11C23.6598 14.956 22.0945 14.3076 20.4624 14.3076C18.8303 14.3076 17.2651 14.956 16.111 16.11C14.9569 17.2641 14.3086 18.8294 14.3086 20.4615Z" stroke="white" stroke-width="3" stroke-linecap="round" stroke-linejoin="round"/>
</g>
</svg>
