<svg width="44" height="44" viewBox="0 0 44 44" fill="none" xmlns="http://www.w3.org/2000/svg">
<g id="Group">
<path id="Vector" d="M22 13V42M2 15.2308C2 14.6391 2.23413 14.0717 2.65087 13.6534C3.06762 13.235 3.63285 13 4.22222 13H39.7778C40.3671 13 40.9324 13.235 41.3491 13.6534C41.7659 14.0717 42 14.6391 42 15.2308V19.6923C42 20.2839 41.7659 20.8513 41.3491 21.2697C40.9324 21.688 40.3671 21.9231 39.7778 21.9231H4.22222C3.63285 21.9231 3.06762 21.688 2.65087 21.2697C2.23413 20.8513 2 20.2839 2 19.6923V15.2308Z" stroke="white" stroke-width="3" stroke-linecap="round" stroke-linejoin="round"/>
<path id="Vector_2" d="M38 22.0005V37.5557C38 38.7344 37.5184 39.8648 36.6611 40.6983C35.8038 41.5318 34.641 42 33.4286 42H10.5714C9.35901 42 8.19625 41.5318 7.33894 40.6983C6.48163 39.8648 6 38.7344 6 37.5557V22.0005M11.7143 13.1118C10.1988 13.1118 8.74531 12.5265 7.67368 11.4847C6.60204 10.4428 6 9.02978 6 7.55639C6 6.083 6.60204 4.66996 7.67368 3.62812C8.74531 2.58627 10.1988 2.00097 11.7143 2.00097C13.9193 1.96362 16.0801 3.00375 17.9148 4.9857C19.7496 6.96765 21.1732 9.79946 22 13.1118C22.8268 9.79946 24.2504 6.96765 26.0852 4.9857C27.9199 3.00375 30.0807 1.96362 32.2857 2.00097C33.8012 2.00097 35.2547 2.58627 36.3263 3.62812C37.398 4.66996 38 6.083 38 7.55639C38 9.02978 37.398 10.4428 36.3263 11.4847C35.2547 12.5265 33.8012 13.1118 32.2857 13.1118" stroke="white" stroke-width="3" stroke-linecap="round" stroke-linejoin="round"/>
</g>
</svg>
