<svg width="32" height="37" viewBox="0 0 32 37" fill="none" xmlns="http://www.w3.org/2000/svg">
<path id="Vector" d="M32 18.4988C32 21.9187 31.4 25.1354 30.2 28.1488C29 31.1622 27.35 33.8734 25.25 36.2823C24.8833 36.7057 24.4167 36.9422 23.85 36.9917C23.2833 37.0412 22.8 36.8699 22.4 36.4777C22 36.0856 21.8167 35.6055 21.85 35.0375C21.8833 34.4694 22.0833 33.9561 22.45 33.4975C24.1833 31.4456 25.542 29.1494 26.526 26.6089C27.51 24.0684 28.0013 21.365 28 18.4988C27.9987 15.6326 27.5073 12.9293 26.526 10.3888C25.5447 7.84831 24.186 5.5521 22.45 3.50016C22.0833 3.04418 21.8833 2.53087 21.85 1.96023C21.8167 1.3896 22 0.909511 22.4 0.519969C22.8 0.130427 23.2833 -0.0402419 23.85 0.00796232C24.4167 0.0561665 24.8833 0.291976 25.25 0.715392C27.35 3.1256 29 5.83742 30.2 8.85083C31.4 11.8642 32 15.0803 32 18.4988ZM24 18.4988C24 20.8439 23.6167 23.0509 22.85 25.1198C22.0833 27.1886 21 29.0692 19.6 30.7616C19.2333 31.2176 18.7667 31.4619 18.2 31.4944C17.6333 31.527 17.15 31.3479 16.75 30.957C16.35 30.5662 16.15 30.0939 16.15 29.5402C16.15 28.9865 16.3333 28.4817 16.7 28.0257C17.7667 26.6903 18.5833 25.2168 19.15 23.6052C19.7167 21.9936 20 20.2915 20 18.4988C20 16.7062 19.7167 15.004 19.15 13.3925C18.5833 11.7809 17.7667 10.3074 16.7 8.97199C16.3333 8.51601 16.15 8.01117 16.15 7.45747C16.15 6.90377 16.35 6.4315 16.75 6.04066C17.15 5.64981 17.6333 5.47067 18.2 5.50324C18.7667 5.53581 19.2333 5.78009 19.6 6.23608C21 7.92974 22.0833 9.81036 22.85 11.8779C23.6167 13.9455 24 16.1525 24 18.4988ZM16 18.4988C16 19.7691 15.808 20.9827 15.424 22.1396C15.04 23.2965 14.4987 24.3465 13.8 25.2898C13.4667 25.7458 13.0247 25.9738 12.474 25.9738C11.9233 25.9738 11.4487 25.7783 11.05 25.3875C10.6833 25.0292 10.4833 24.5732 10.45 24.0195C10.4167 23.4658 10.55 22.961 10.85 22.505C11.2167 21.9187 11.5 21.2921 11.7 20.625C11.9 19.958 12 19.2493 12 18.4988C12 17.7484 11.9 17.0397 11.7 16.3726C11.5 15.7056 11.2167 15.0789 10.85 14.4927C10.55 14.0367 10.4167 13.5319 10.45 12.9782C10.4833 12.4245 10.6833 11.9685 11.05 11.6102C11.45 11.2194 11.9253 11.0239 12.476 11.0239C13.0267 11.0239 13.468 11.2519 13.8 11.7079C14.5 12.6525 15.042 13.7025 15.426 14.8581C15.81 16.0137 16.0013 17.2273 16 18.4988ZM8 18.4988C8 19.5737 7.60867 20.4941 6.826 21.2602C6.04333 22.0262 5.10133 22.4086 4 22.4073V32.1784C4 32.7321 3.808 33.1966 3.424 33.5718C3.04 33.947 2.56533 34.1339 2 34.1326C1.43467 34.1313 0.96 33.9437 0.576 33.5698C0.192 33.1959 0 32.7321 0 32.1784V4.81926C0 4.26557 0.192 3.80177 0.576 3.42786C0.96 3.05395 1.43467 2.86634 2 2.86504C2.56533 2.86374 3.04067 3.05134 3.426 3.42786C3.81133 3.80437 4.00267 4.26817 4 4.81926V14.5904C5.1 14.5904 6.042 14.9734 6.826 15.7395C7.61 16.5055 8.00133 17.4253 8 18.4988Z" fill="white"/>
</svg>
