<svg width="39" height="39" viewBox="0 0 39 39" fill="none" xmlns="http://www.w3.org/2000/svg">
<g id="Group 427320858">
<path id="Vector" d="M38.5926 19.7307C38.5926 29.3849 31.4384 37.3662 22.1446 38.6614C21.2756 38.782 20.3865 38.8449 19.484 38.8449C18.4423 38.8449 17.4193 38.7619 16.4231 38.6012C7.32478 37.1359 0.375488 29.2443 0.375488 19.7307C0.375488 9.17381 8.93155 0.615234 19.4854 0.615234C30.0392 0.615234 38.5952 9.17381 38.5952 19.7307H38.5926Z" fill="#05053E"/>
<g id="layer1">
<path id="path1009" d="M8.12546 9.04639L16.9386 20.8329L8.07056 30.4161H10.067L17.8317 22.0262L24.1048 30.4161H30.8974L21.5889 17.9666L29.8437 9.04639H27.8472L20.6971 16.7732L14.9194 9.04639H8.12678H8.12546ZM11.0605 10.517H14.1803L27.9597 28.9454H24.8399L11.0605 10.517Z" fill="white"/>
</g>
</g>
</svg>
