<svg width="39" height="39" viewBox="0 0 39 39" fill="none" xmlns="http://www.w3.org/2000/svg">
<g id="Group">
<path id="Vector" d="M38.8153 19.6756C38.8153 9.14871 30.2841 0.61499 19.7603 0.61499C9.23654 0.61499 0.705322 9.14871 0.705322 19.6756C0.705322 30.2025 9.23654 38.7362 19.7603 38.7362C30.2841 38.7362 38.8153 30.2025 38.8153 19.6756Z" fill="#05053E"/>
<path id="Vector_2" d="M31.7587 15.7258C31.6088 14.2779 31.2861 12.6774 30.0984 11.8362C29.1785 11.184 27.9694 11.1598 26.8407 11.1612C24.4546 11.1612 22.0672 11.1652 19.6812 11.1665C17.3862 11.1692 15.0911 11.1706 12.7961 11.1732C11.8374 11.1732 10.9055 11.0996 10.0151 11.5148C9.25053 11.871 8.652 12.5488 8.29182 13.3028C7.79238 14.3516 7.68795 15.5396 7.62769 16.6995C7.51656 18.8117 7.52861 20.9292 7.66117 23.0401C7.75891 24.5803 8.00662 26.2827 9.19697 27.2644C10.2521 28.1337 11.741 28.1766 13.1095 28.1779C17.4531 28.1819 21.7981 28.1859 26.1431 28.1886C26.7001 28.1899 27.2812 28.1792 27.8489 28.1176C28.9656 27.9971 30.0301 27.677 30.7478 26.8492C31.4722 26.0148 31.6583 24.8536 31.7681 23.754C32.0359 21.0859 32.0332 18.3924 31.7587 15.7258ZM17.1692 23.4151V15.9347L23.6446 19.6742L17.1692 23.4151Z" fill="white"/>
</g>
</svg>
